<svg width="1139" height="589" viewBox="0 0 1139 589" fill="none" xmlns="http://www.w3.org/2000/svg">
    <g opacity="0.7">
        <path opacity="0.7" d="M865.775 0H272.052C266.964 0.0186396 262.091 2.05852 258.505 5.67121C254.919 9.2839 252.913 14.1737 252.929 19.2657V428.187C252.913 433.279 254.919 438.168 258.505 441.781C262.091 445.394 266.964 447.434 272.052 447.452H476.252V518.038H466.943C465.665 518.043 464.4 518.3 463.221 518.793C462.042 519.287 460.972 520.008 460.072 520.916C459.171 521.823 458.458 522.899 457.973 524.083C457.489 525.266 457.242 526.533 457.246 527.812V541.974H476.252V550.351H661.575V541.974H680.581V527.812C680.586 526.533 680.339 525.266 679.854 524.083C679.369 522.899 678.656 521.823 677.756 520.916C676.855 520.008 675.785 519.287 674.606 518.793C673.427 518.3 672.163 518.043 670.885 518.038H662.126V517.428H661.528V447.452H865.775C870.864 447.434 875.737 445.394 879.323 441.781C882.909 438.168 884.914 433.279 884.899 428.187V19.2657C884.914 14.1737 882.909 9.2839 879.323 5.67121C875.737 2.05852 870.864 0.0186396 865.775 0Z" fill="url(#paint0_linear)"/>
    </g>
    <path d="M660.954 435.297H478.046V543.241H660.954V435.297Z" fill="#BDBDBD"/>
    <g opacity="0.1">
        <path opacity="0.1" d="M481.646 445.857H657.718C659.84 436.623 661.54 430.604 661.54 430.604H477.46C477.46 430.604 479.348 436.599 481.646 445.857Z" fill="black"/>
    </g>
    <path d="M276.496 3.51993H862.504C867.511 3.51993 872.312 5.51014 875.852 9.05275C879.393 12.5954 881.381 17.4002 881.381 22.4102V383.671H257.619V22.4102C257.619 17.4002 259.607 12.5954 263.148 9.05275C266.688 5.51014 271.489 3.51993 276.496 3.51993V3.51993Z" fill="#535461"/>
    <path d="M862.504 442.337H276.496C271.489 442.337 266.688 440.346 263.148 436.804C259.607 433.261 257.619 428.456 257.619 423.446V383.671H881.381V423.446C881.381 428.456 879.393 433.261 875.852 436.804C872.312 440.346 867.511 442.337 862.504 442.337V442.337Z" fill="#BDBDBD"/>
    <path d="M569.5 423.564C575.328 423.564 580.052 418.836 580.052 413.004C580.052 407.172 575.328 402.444 569.5 402.444C563.672 402.444 558.948 407.172 558.948 413.004C558.948 418.836 563.672 423.564 569.5 423.564Z" fill="#535461"/>
    <path d="M468.866 511.562H670.134C672.675 511.562 675.112 512.572 676.908 514.369C678.705 516.167 679.714 518.605 679.714 521.148V535.028H459.286V521.148C459.286 519.889 459.534 518.642 460.015 517.479C460.497 516.316 461.202 515.26 462.092 514.369C462.981 513.479 464.038 512.773 465.2 512.291C466.362 511.81 467.608 511.562 468.866 511.562V511.562Z" fill="#BDBDBD"/>
    <g opacity="0.5">
        <path opacity="0.5" d="M757.684 83.4456H381.316C378.402 83.4456 376.04 85.8095 376.04 88.7255V298.466C376.04 301.382 378.402 303.746 381.316 303.746H757.684C760.598 303.746 762.96 301.382 762.96 298.466V88.7255C762.96 85.8095 760.598 83.4456 757.684 83.4456Z" fill="url(#paint1_linear)"/>
    </g>
    <path d="M752.724 85.0647H386.276C383.362 85.0647 380.999 87.4286 380.999 90.3446V295.626C380.999 298.542 383.362 300.906 386.276 300.906H752.724C755.638 300.906 758.001 298.542 758.001 295.626V90.3446C758.001 87.4286 755.638 85.0647 752.724 85.0647Z" fill="white"/>
    <g opacity="0.5">
        <path opacity="0.5" d="M522.296 116.052H491.295C488.381 116.052 486.019 118.416 486.019 121.332V148.2C486.019 151.116 488.381 153.48 491.295 153.48H522.296C525.21 153.48 527.572 151.116 527.572 148.2V121.332C527.572 118.416 525.21 116.052 522.296 116.052Z" fill="#F9A826"/>
    </g>
    <path d="M650.155 116.052H542.111C540.965 116.052 540.035 116.982 540.035 118.129C540.035 119.275 540.965 120.205 542.111 120.205H650.155C651.301 120.205 652.231 119.275 652.231 118.129C652.231 116.982 651.301 116.052 650.155 116.052Z" fill="#E0E0E0"/>
    <path d="M631.22 128.536H542.111C540.965 128.536 540.035 129.466 540.035 130.612C540.035 131.759 540.965 132.689 542.111 132.689H631.22C632.366 132.689 633.295 131.759 633.295 130.612C633.295 129.466 632.366 128.536 631.22 128.536Z" fill="#E0E0E0"/>
    <g opacity="0.5">
        <path opacity="0.5" d="M522.296 174.271H491.295C488.381 174.271 486.019 176.635 486.019 179.551V206.42C486.019 209.336 488.381 211.7 491.295 211.7H522.296C525.21 211.7 527.572 209.336 527.572 206.42V179.551C527.572 176.635 525.21 174.271 522.296 174.271Z" fill="#F9A826"/>
    </g>
    <path d="M650.155 174.271H542.111C540.965 174.271 540.035 175.201 540.035 176.348C540.035 177.495 540.965 178.425 542.111 178.425H650.155C651.301 178.425 652.231 177.495 652.231 176.348C652.231 175.201 651.301 174.271 650.155 174.271Z" fill="#E0E0E0"/>
    <path d="M650.155 186.744H542.111C540.965 186.744 540.035 187.673 540.035 188.82C540.035 189.967 540.965 190.897 542.111 190.897H650.155C651.301 190.897 652.231 189.967 652.231 188.82C652.231 187.673 651.301 186.744 650.155 186.744Z" fill="#E0E0E0"/>
    <g opacity="0.5">
        <path opacity="0.5" d="M522.296 232.491H491.295C488.381 232.491 486.019 234.855 486.019 237.771V264.639C486.019 267.555 488.381 269.919 491.295 269.919H522.296C525.21 269.919 527.572 267.555 527.572 264.639V237.771C527.572 234.855 525.21 232.491 522.296 232.491Z" fill="#F9A826"/>
    </g>
    <path d="M650.155 232.491H542.111C540.965 232.491 540.035 233.421 540.035 234.567C540.035 235.714 540.965 236.644 542.111 236.644H650.155C651.301 236.644 652.231 235.714 652.231 234.567C652.231 233.421 651.301 232.491 650.155 232.491Z" fill="#E0E0E0"/>
    <path d="M651.117 244.963H541.9C540.87 244.963 540.035 245.798 540.035 246.829V247.251C540.035 248.281 540.87 249.117 541.9 249.117H651.117C652.146 249.117 652.981 248.281 652.981 247.251V246.829C652.981 245.798 652.146 244.963 651.117 244.963Z" fill="#E0E0E0"/>
    <path d="M569.5 49.2789V23.4661" stroke="#F9A826" stroke-width="2" stroke-miterlimit="10"/>
    <path d="M569.5 92.6912V58.8179" stroke="#F9A826" stroke-width="2" stroke-miterlimit="10"/>
    <path d="M569.5 97.3844C572.09 97.3844 574.19 95.2832 574.19 92.6912C574.19 90.0992 572.09 87.998 569.5 87.998C566.91 87.998 564.81 90.0992 564.81 92.6912C564.81 95.2832 566.91 97.3844 569.5 97.3844Z" fill="#F9A826"/>
    <path d="M569.5 58.6653C572.09 58.6653 574.19 56.5641 574.19 53.9721C574.19 51.3801 572.09 49.2789 569.5 49.2789C566.91 49.2789 564.81 51.3801 564.81 53.9721C564.81 56.5641 566.91 58.6653 569.5 58.6653Z" stroke="white" stroke-miterlimit="10"/>
    <path d="M569.5 49.2789V23.4661" stroke="#F9A826" stroke-width="2" stroke-miterlimit="10"/>
    <path d="M569.5 92.6912V58.8179" stroke="#F9A826" stroke-width="2" stroke-miterlimit="10"/>
    <path d="M569.5 97.3844C572.09 97.3844 574.19 95.2832 574.19 92.6912C574.19 90.0992 572.09 87.998 569.5 87.998C566.91 87.998 564.81 90.0992 564.81 92.6912C564.81 95.2832 566.91 97.3844 569.5 97.3844Z" fill="#F9A826"/>
    <path d="M569.5 58.6653C572.09 58.6653 574.19 56.5641 574.19 53.9721C574.19 51.3801 572.09 49.2789 569.5 49.2789C566.91 49.2789 564.81 51.3801 564.81 53.9721C564.81 56.5641 566.91 58.6653 569.5 58.6653Z" stroke="white" stroke-miterlimit="10"/>
    <path d="M569.5 327.353V363.725" stroke="#F9A826" stroke-width="2" stroke-miterlimit="10"/>
    <path d="M569.5 294.5V328.373" stroke="#F9A826" stroke-width="2" stroke-miterlimit="10"/>
    <path d="M569.5 299.193C572.09 299.193 574.19 297.092 574.19 294.5C574.19 291.908 572.09 289.807 569.5 289.807C566.91 289.807 564.81 291.908 564.81 294.5C564.81 297.092 566.91 299.193 569.5 299.193Z" fill="#F9A826"/>
    <path d="M358.452 197.702H321.519" stroke="#F9A826" stroke-width="2" stroke-miterlimit="10"/>
    <path d="M390.696 197.702H356.846" stroke="#F9A826" stroke-width="2" stroke-miterlimit="10"/>
    <path d="M390.696 202.395C393.286 202.395 395.386 200.294 395.386 197.702C395.386 195.11 393.286 193.009 390.696 193.009C388.106 193.009 386.006 195.11 386.006 197.702C386.006 200.294 388.106 202.395 390.696 202.395Z" fill="#F9A826"/>
    <g opacity="0.1">
        <path opacity="0.1" d="M661.54 510.975H478.632V514.495H661.54V510.975Z" fill="black"/>
    </g>
    <g opacity="0.7">
        <path opacity="0.7" d="M210.11 430.674H125.222L126.394 421.123C150.383 399.57 165.895 342.148 165.895 342.148C165.551 342.196 165.21 342.267 164.875 342.359C150.805 345.199 140.792 350.983 133.792 357.941L136.771 332.527C181.091 322.976 198.666 264.311 198.666 264.311C170.386 270.588 152.752 280.303 141.801 289.525L146.162 252.191C176.131 262.481 207.131 207.816 207.131 207.816L205.959 207.57L206.545 207.194L205.654 207.511C172.531 200.366 154.827 219.315 149.082 227.187L149.515 223.527C148.64 225.873 147.788 228.173 146.959 230.426V230.52C144.614 236.879 142.469 243.16 140.523 249.363C138.826 254.658 137.24 259.899 135.762 265.085V265.015C135.762 265.015 134.39 231.623 99.2041 222.834C99.2041 222.834 102.897 295.662 130.779 283.741C128.2 294.301 126.089 304.461 124.26 314.329C123.095 320.751 122.079 327.008 121.212 333.102L121.048 333.29L121.212 333.149L121.141 333.63C120.36 339.16 119.695 344.549 119.148 349.798C119.687 339.684 117.847 310.469 83.4459 283.013C83.4459 283.013 37.7189 363.432 115.689 379.225C115.865 379.377 116.041 379.53 116.205 379.67L116.088 379.307L116.791 379.459L117.108 375.329C116.168 392.567 116.258 409.845 117.378 427.072V427.072C117.46 428.245 117.542 429.419 117.624 430.533H31.7627C-0.996599 498.339 49.9597 535.497 49.9597 535.497H190.658C245.296 466.577 210.11 430.674 210.11 430.674Z" fill="url(#paint2_linear)"/>
    </g>
    <path opacity="0.6" d="M120.438 456.416C120.438 456.416 98.1605 359.032 147.405 233.488" stroke="#535461" stroke-width="3" stroke-miterlimit="10"/>
    <path d="M33.6738 427.084H206.029C206.029 427.084 240.031 470.496 187.269 535.028H51.2611C51.2611 535.028 2.01667 490.442 33.6738 427.084Z" fill="#F9A826"/>
    <path d="M144.931 239.941C144.931 239.941 162.061 209.435 203.098 218.822C203.098 218.822 169.178 276.619 138.611 257.693L144.931 239.941Z" fill="#4DB6AC"/>
    <path d="M134.074 272.313C134.074 272.313 132.749 241.115 98.7468 232.901C98.7468 232.901 102.264 300.953 129.231 289.807L134.074 272.313Z" fill="#4DB6AC"/>
    <path d="M122.959 318.388C122.959 318.388 129.231 285.7 194.891 271.62C194.891 271.62 173.95 339.226 119.934 336.516L122.959 318.388Z" fill="#4DB6AC"/>
    <path d="M117.636 355.078C117.636 355.078 124.541 320.899 83.5045 289.22C83.5045 289.22 38.95 365.098 115.724 379.365L117.636 355.078Z" fill="#4DB6AC"/>
    <path d="M116.404 402.057C116.404 402.057 111.644 353.752 163.234 344.366C163.234 344.366 144.392 411.819 116.334 423.845L116.404 402.057Z" fill="#4DB6AC"/>
    <path opacity="0.3" d="M139.198 258.128C139.198 258.128 183.752 224.102 202.512 218.235" stroke="#535461" stroke-miterlimit="10"/>
    <path opacity="0.3" d="M119.852 336.152C119.852 336.152 173.786 278.66 194.891 271.62" stroke="#535461" stroke-miterlimit="10"/>
    <path opacity="0.3" d="M98.7468 232.901C98.7468 232.901 131.576 277.487 129.231 289.22" stroke="#535461" stroke-miterlimit="10"/>
    <path opacity="0.3" d="M83.5045 289.22C83.5045 289.22 101.092 369.005 115.162 379.565" stroke="#535461" stroke-miterlimit="10"/>
    <path opacity="0.3" d="M116.334 424.15C116.334 424.15 144.474 346.712 163.234 344.366" stroke="#535461" stroke-miterlimit="10"/>
    <g opacity="0.1">
        <path opacity="0.1" d="M206.029 427.084H33.6738C33.2869 427.87 32.9117 428.656 32.5013 429.43H200.167C200.167 429.43 233.336 471.798 183.283 535.028H187.269C240.031 470.496 206.029 427.084 206.029 427.084Z" fill="black"/>
    </g>
    <path d="M1139 534.559H0V573.195H1139V534.559Z" fill="#E0E0E0"/>
    <path d="M1090.73 573.195H48.2595V589H1090.73V573.195Z" fill="#E0E0E0"/>
    <path opacity="0.1" d="M1090.73 573.195H48.2595V578.464H1090.73V573.195Z" fill="black"/>
    <path d="M809.273 197.702H816.308" stroke="#F9A826" stroke-width="2" stroke-miterlimit="10"/>
    <path d="M747.132 197.702H799.753" stroke="#F9A826" stroke-width="2" stroke-miterlimit="10"/>
    <path d="M747.132 202.395C749.722 202.395 751.822 200.294 751.822 197.702C751.822 195.11 749.722 193.009 747.132 193.009C744.541 193.009 742.442 195.11 742.442 197.702C742.442 200.294 744.541 202.395 747.132 202.395Z" fill="#F9A826"/>
    <path d="M804.583 202.395C807.174 202.395 809.273 200.294 809.273 197.702C809.273 195.11 807.174 193.009 804.583 193.009C801.993 193.009 799.893 195.11 799.893 197.702C799.893 200.294 801.993 202.395 804.583 202.395Z" stroke="white" stroke-miterlimit="10"/>
    <g opacity="0.7">
        <path opacity="0.7" d="M1070.15 521.981L1070.27 521.805C1070.51 521.429 1070.75 521.038 1070.98 520.631L1071.11 520.408C1071.34 520.025 1071.55 519.634 1071.76 519.235L1071.86 519.036C1072.1 518.578 1072.32 518.121 1072.52 517.64C1072.94 516.679 1073.31 515.696 1073.62 514.694L1073.74 514.307C1073.84 513.944 1073.95 513.58 1074.04 513.216L1074.16 512.7C1074.24 512.371 1074.31 512.039 1074.37 511.703C1074.37 511.515 1074.44 511.327 1074.48 511.139C1074.51 510.952 1074.58 510.482 1074.63 510.142C1074.68 509.802 1074.63 509.755 1074.7 509.567C1074.77 509.379 1074.77 508.851 1074.79 508.488C1074.79 508.323 1074.79 508.147 1074.79 507.983C1074.79 507.455 1074.79 506.916 1074.79 506.388V409.484H1058.56V361.989H1038.62V409.484H1024.88V341.268H1004.95V409.484H997.457V331.518H977.525V409.484H959.938V506.399C959.938 522.215 973.081 535.028 989.25 535.028H1045.53C1050.13 535.046 1054.67 533.988 1058.79 531.939C1062.91 529.89 1066.5 526.906 1069.26 523.224V523.224C1069.55 522.81 1069.85 522.395 1070.15 521.981Z" fill="url(#paint3_linear)"/>
    </g>
    <path d="M998.63 376.631H979.87V493.962H998.63V376.631Z" fill="#535461"/>
    <path d="M998.63 337.912H979.87V376.631H998.63V337.912Z" fill="#3AD29F"/>
    <path d="M1024.42 386.018H1005.66V503.349H1024.42V386.018Z" fill="#535461"/>
    <path d="M1024.42 347.299H1005.66V386.018H1024.42V347.299Z" fill="#4D8AF0"/>
    <path d="M1056.08 405.964H1037.32V523.295H1056.08V405.964Z" fill="#535461"/>
    <path d="M1056.08 367.245H1037.32V405.964H1056.08V367.245Z" fill="#F55F44"/>
    <path d="M963.455 413.004H1071.32V506.282C1071.32 513.595 1068.42 520.608 1063.25 525.779C1058.09 530.95 1051.08 533.855 1043.77 533.855H991.009C983.701 533.855 976.693 530.95 971.526 525.779C966.358 520.608 963.455 513.595 963.455 506.282V413.004Z" fill="#F9A826"/>
    <g opacity="0.1">
        <path opacity="0.1" d="M963.455 413.004V417.697H1066.63V510.975C1066.64 517.14 1064.58 523.129 1060.77 527.976C1064.06 525.4 1066.72 522.108 1068.55 518.348C1070.38 514.589 1071.33 510.463 1071.32 506.282V413.004H963.455Z" fill="black"/>
    </g>
    <g clip-path="url(#clip0)">
        <path fill-rule="evenodd" clip-rule="evenodd" d="M394.878 122.578C394.878 119.244 397.568 116.547 400.901 116.547H610.391C613.718 116.547 616.415 119.245 616.415 122.578V266.263C616.415 269.597 613.725 272.293 610.391 272.293H400.901C397.574 272.293 394.878 269.595 394.878 266.263V122.578Z" fill="white" stroke="#F2994A" stroke-width="3.95472"/>
        <path fill-rule="evenodd" clip-rule="evenodd" d="M408.429 132.489C408.429 131.062 409.588 129.903 411.011 129.903H600.066C601.495 129.903 602.649 131.055 602.649 132.489V239.549C602.649 240.976 601.49 242.135 600.066 242.135H411.011C409.583 242.135 408.429 240.983 408.429 239.549V132.489Z" fill="white" stroke="#F2994A" stroke-width="3.95472"/>
        <path fill-rule="evenodd" clip-rule="evenodd" d="M489.871 272.293H521.637L523.782 300.082H487.726L489.871 272.293Z" fill="white" stroke="#F2994A" stroke-width="3.95472"/>
        <path fill-rule="evenodd" clip-rule="evenodd" d="M474.459 306.116V303.206C474.459 301.483 475.855 300.082 477.573 300.082H533.935C535.65 300.082 537.049 301.484 537.049 303.206V306.116C537.049 306.237 536.956 306.329 536.833 306.329H474.675C474.554 306.329 474.459 306.234 474.459 306.116Z" fill="white" stroke="#F2994A" stroke-width="3.95472"/>
        <path d="M505.754 262.384C507.952 262.384 509.733 260.6 509.733 258.399C509.733 256.198 507.952 254.414 505.754 254.414C503.556 254.414 501.775 256.198 501.775 258.399C501.775 260.6 503.556 262.384 505.754 262.384Z" stroke="#F2994A" stroke-width="3.95472"/>
        <path d="M411.872 222.748H379.604C376.755 222.748 374.445 225.062 374.445 227.918V301.159C374.445 304.015 376.755 306.329 379.604 306.329H411.872C414.721 306.329 417.031 304.015 417.031 301.159V227.918C417.031 225.062 414.721 222.748 411.872 222.748Z" fill="white" stroke="#F2994A" stroke-width="3.95472"/>
        <path fill-rule="evenodd" clip-rule="evenodd" d="M374.445 232.011H417.031V293.9H374.445V232.011Z" fill="white" stroke="#F2994A" stroke-width="3.95472"/>
        <path d="M405.202 226.41H386.489C386.014 226.41 385.629 226.795 385.629 227.271C385.629 227.747 386.014 228.133 386.489 228.133H405.202C405.677 228.133 406.062 227.747 406.062 227.271C406.062 226.795 405.677 226.41 405.202 226.41Z" fill="#F2994A"/>
        <path d="M395.826 297.497H395.822C394.469 297.497 393.372 298.597 393.372 299.953C393.372 301.309 394.469 302.409 395.822 302.409H395.826C397.179 302.409 398.276 301.309 398.276 299.953C398.276 298.597 397.179 297.497 395.826 297.497Z" fill="#F2994A"/>
        <path d="M386.489 266.046C388.271 266.046 389.716 264.6 389.716 262.815C389.716 261.03 388.271 259.584 386.489 259.584C384.708 259.584 383.263 261.03 383.263 262.815C383.263 264.6 384.708 266.046 386.489 266.046Z" fill="white" stroke="#F2994A" stroke-width="3.95472"/>
        <path d="M408.214 257.214H394.877C394.402 257.214 394.017 257.6 394.017 258.076C394.017 258.552 394.402 258.938 394.877 258.938H408.214C408.688 258.938 409.073 258.552 409.073 258.076C409.073 257.6 408.688 257.214 408.214 257.214Z" fill="#F2994A"/>
        <path d="M403.912 261.953H394.877C394.402 261.953 394.017 262.339 394.017 262.815C394.017 263.291 394.402 263.677 394.877 263.677H403.912C404.387 263.677 404.772 263.291 404.772 262.815C404.772 262.339 404.387 261.953 403.912 261.953Z" fill="#F2994A"/>
        <path d="M399.61 266.693H394.877C394.402 266.693 394.017 267.078 394.017 267.554C394.017 268.03 394.402 268.416 394.877 268.416H399.61C400.085 268.416 400.47 268.03 400.47 267.554C400.47 267.078 400.085 266.693 399.61 266.693Z" fill="#F2994A"/>
        <path d="M352.613 263.246C370.848 263.246 385.63 248.442 385.63 230.179C385.63 211.917 370.848 197.113 352.613 197.113C334.379 197.113 319.597 211.917 319.597 230.179C319.597 248.442 334.379 263.246 352.613 263.246Z" fill="white" stroke="#F2994A" stroke-width="3.95472"/>
        <path d="M708.904 190.22H560.06C557.211 190.22 554.901 192.534 554.901 195.39V292.112C554.901 294.967 557.211 297.282 560.06 297.282H708.904C711.754 297.282 714.063 294.967 714.063 292.112V195.39C714.063 192.534 711.754 190.22 708.904 190.22Z" fill="white" stroke="#F2994A" stroke-width="3.95472"/>
        <path fill-rule="evenodd" clip-rule="evenodd" d="M543.931 297.492V301.806C543.931 304.3 545.954 306.329 548.444 306.329H720.521C723.009 306.329 725.034 304.301 725.034 301.806V297.492C725.034 297.375 724.94 297.282 724.82 297.282H544.145C544.024 297.282 543.931 297.375 543.931 297.492Z" fill="white" stroke="#F2994A" stroke-width="3.95472"/>
        <path fill-rule="evenodd" clip-rule="evenodd" d="M646.376 297.379L622.287 297.378C623.248 299.923 625.701 301.687 628.514 301.687H640.149C642.963 301.687 645.415 299.923 646.376 297.379Z" fill="white" stroke="#F2994A" stroke-width="3.95472"/>
        <path d="M705.119 200.344H563.718C562.768 200.344 561.998 201.116 561.998 202.068V285.617C561.998 286.569 562.768 287.34 563.718 287.34H705.119C706.069 287.34 706.839 286.569 706.839 285.617V202.068C706.839 201.116 706.069 200.344 705.119 200.344Z" fill="white" stroke="#F2994A" stroke-width="3.95472"/>
        <path d="M500.915 132.919C501.508 132.919 501.99 132.437 501.99 131.842C501.99 131.247 501.508 130.765 500.915 130.765C500.321 130.765 499.839 131.247 499.839 131.842C499.839 132.437 500.321 132.919 500.915 132.919Z" fill="#293347"/>
        <path fill-rule="evenodd" clip-rule="evenodd" d="M439.401 100.391H538.769V195.821C538.769 199.15 536.068 201.852 532.745 201.852H445.424C442.099 201.852 439.401 199.149 439.401 195.821V100.391Z" fill="white" stroke="#F2994A" stroke-width="3.95472"/>
        <path fill-rule="evenodd" clip-rule="evenodd" d="M439.401 95.6464C439.401 92.3196 442.102 89.6202 445.424 89.6202H532.745C536.072 89.6202 538.769 92.3167 538.769 95.6464V102.114H439.401V95.6464Z" fill="white" stroke="#F2994A" stroke-width="3.95472"/>
        <path d="M448.649 97.806C449.718 97.806 450.585 96.938 450.585 95.8672C450.585 94.7965 449.718 93.9285 448.649 93.9285C447.58 93.9285 446.713 94.7965 446.713 95.8672C446.713 96.938 447.58 97.806 448.649 97.806Z" fill="#F2994A"/>
        <path d="M455.101 97.806C456.171 97.806 457.037 96.938 457.037 95.8672C457.037 94.7965 456.171 93.9285 455.101 93.9285C454.032 93.9285 453.166 94.7965 453.166 95.8672C453.166 96.938 454.032 97.806 455.101 97.806Z" fill="#F2994A"/>
        <path d="M461.554 97.806C462.623 97.806 463.49 96.938 463.49 95.8672C463.49 94.7965 462.623 93.9285 461.554 93.9285C460.485 93.9285 459.618 94.7965 459.618 95.8672C459.618 96.938 460.485 97.806 461.554 97.806Z" fill="#F2994A"/>
        <path d="M454.457 163.293H452.305C451.83 163.293 451.445 163.678 451.445 164.154C451.445 164.63 451.83 165.016 452.305 165.016H454.457C454.932 165.016 455.317 164.63 455.317 164.154C455.317 163.678 454.932 163.293 454.457 163.293Z" fill="#F2994A"/>
        <path d="M454.457 120.209H452.305C451.83 120.209 451.445 120.595 451.445 121.071C451.445 121.547 451.83 121.933 452.305 121.933H454.457C454.932 121.933 455.317 121.547 455.317 121.071C455.317 120.595 454.932 120.209 454.457 120.209Z" fill="#F2994A"/>
        <path fill-rule="evenodd" clip-rule="evenodd" d="M458.757 120.209H464.566C465.041 120.209 465.426 120.595 465.426 121.071C465.426 121.547 465.041 121.933 464.566 121.933H458.757C458.283 121.933 457.898 121.547 457.898 121.071C457.898 120.595 458.283 120.209 458.757 120.209Z" fill="#F2994A"/>
        <path fill-rule="evenodd" clip-rule="evenodd" d="M468.436 120.209H474.245C474.719 120.209 475.104 120.595 475.104 121.071C475.104 121.547 474.719 121.933 474.245 121.933H468.436C467.961 121.933 467.576 121.547 467.576 121.071C467.576 120.595 467.961 120.209 468.436 120.209Z" fill="#F2994A"/>
        <path fill-rule="evenodd" clip-rule="evenodd" d="M478.115 120.209H488.87C489.345 120.209 489.73 120.595 489.73 121.071C489.73 121.547 489.345 121.933 488.87 121.933H478.115C477.64 121.933 477.255 121.547 477.255 121.071C477.255 120.595 477.64 120.209 478.115 120.209Z" fill="#F2994A"/>
        <path fill-rule="evenodd" clip-rule="evenodd" d="M492.741 120.209H508.658C509.133 120.209 509.518 120.595 509.518 121.071C509.518 121.547 509.133 121.933 508.658 121.933H492.741C492.266 121.933 491.881 121.547 491.881 121.071C491.881 120.595 492.266 120.209 492.741 120.209Z" fill="#F2994A"/>
        <path d="M454.457 128.826H452.305C451.83 128.826 451.445 129.212 451.445 129.688C451.445 130.164 451.83 130.549 452.305 130.549H454.457C454.932 130.549 455.317 130.164 455.317 129.688C455.317 129.212 454.932 128.826 454.457 128.826Z" fill="#F2994A"/>
        <path d="M454.457 137.443H452.305C451.83 137.443 451.445 137.828 451.445 138.304C451.445 138.78 451.83 139.166 452.305 139.166H454.457C454.932 139.166 455.317 138.78 455.317 138.304C455.317 137.828 454.932 137.443 454.457 137.443Z" fill="#F2994A"/>
        <path d="M454.457 146.059H452.305C451.83 146.059 451.445 146.445 451.445 146.921C451.445 147.397 451.83 147.783 452.305 147.783H454.457C454.932 147.783 455.317 147.397 455.317 146.921C455.317 146.445 454.932 146.059 454.457 146.059Z" fill="#F2994A"/>
        <path d="M454.457 154.676H452.305C451.83 154.676 451.445 155.062 451.445 155.538C451.445 156.014 451.83 156.399 452.305 156.399H454.457C454.932 156.399 455.317 156.014 455.317 155.538C455.317 155.062 454.932 154.676 454.457 154.676Z" fill="#F2994A"/>
        <path d="M454.457 171.909H452.305C451.83 171.909 451.445 172.295 451.445 172.771C451.445 173.247 451.83 173.633 452.305 173.633H454.457C454.932 173.633 455.317 173.247 455.317 172.771C455.317 172.295 454.932 171.909 454.457 171.909Z" fill="#F2994A"/>
        <path d="M454.457 180.526H452.305C451.83 180.526 451.445 180.912 451.445 181.388C451.445 181.863 451.83 182.249 452.305 182.249H454.457C454.932 182.249 455.317 181.863 455.317 181.388C455.317 180.912 454.932 180.526 454.457 180.526Z" fill="#F2994A"/>
        <path d="M472.094 128.826H458.757C458.283 128.826 457.898 129.212 457.898 129.688C457.898 130.164 458.283 130.549 458.757 130.549H472.094C472.569 130.549 472.954 130.164 472.954 129.688C472.954 129.212 472.569 128.826 472.094 128.826Z" fill="#F2994A"/>
        <path d="M500.055 128.826H475.964C475.489 128.826 475.104 129.212 475.104 129.688C475.104 130.164 475.489 130.549 475.964 130.549H500.055C500.53 130.549 500.915 130.164 500.915 129.688C500.915 129.212 500.53 128.826 500.055 128.826Z" fill="#F2994A"/>
        <path d="M512.96 128.826H503.925C503.45 128.826 503.065 129.212 503.065 129.688C503.065 130.164 503.45 130.549 503.925 130.549H512.96C513.435 130.549 513.82 130.164 513.82 129.688C513.82 129.212 513.435 128.826 512.96 128.826Z" fill="#F2994A"/>
        <path d="M467.792 137.443H458.757C458.283 137.443 457.898 137.828 457.898 138.304C457.898 138.78 458.283 139.166 458.757 139.166H467.792C468.267 139.166 468.652 138.78 468.652 138.304C468.652 137.828 468.267 137.443 467.792 137.443Z" fill="#F2994A"/>
        <path d="M480.697 137.443H471.662C471.188 137.443 470.803 137.828 470.803 138.304C470.803 138.78 471.188 139.166 471.662 139.166H480.697C481.172 139.166 481.557 138.78 481.557 138.304C481.557 137.828 481.172 137.443 480.697 137.443Z" fill="#F2994A"/>
        <path d="M489.301 137.443H484.568C484.093 137.443 483.708 137.828 483.708 138.304C483.708 138.78 484.093 139.166 484.568 139.166H489.301C489.775 139.166 490.16 138.78 490.16 138.304C490.16 137.828 489.775 137.443 489.301 137.443Z" fill="#F2994A"/>
        <path d="M478.546 146.059H458.757C458.283 146.059 457.898 146.445 457.898 146.921C457.898 147.397 458.283 147.783 458.757 147.783H478.546C479.021 147.783 479.406 147.397 479.406 146.921C479.406 146.445 479.021 146.059 478.546 146.059Z" fill="#F2994A"/>
        <path d="M495.753 146.059H482.417C481.942 146.059 481.557 146.445 481.557 146.921C481.557 147.397 481.942 147.783 482.417 147.783H495.753C496.228 147.783 496.613 147.397 496.613 146.921C496.613 146.445 496.228 146.059 495.753 146.059Z" fill="#F2994A"/>
        <path d="M478.546 154.676H458.757C458.283 154.676 457.898 155.062 457.898 155.538C457.898 156.014 458.283 156.399 458.757 156.399H478.546C479.021 156.399 479.406 156.014 479.406 155.538C479.406 155.062 479.021 154.676 478.546 154.676Z" fill="#F2994A"/>
        <path d="M508.658 154.676H482.417C481.942 154.676 481.557 155.062 481.557 155.538C481.557 156.014 481.942 156.399 482.417 156.399H508.658C509.133 156.399 509.518 156.014 509.518 155.538C509.518 155.062 509.133 154.676 508.658 154.676Z" fill="#F2994A"/>
        <path d="M472.094 163.293H458.757C458.283 163.293 457.898 163.678 457.898 164.154C457.898 164.63 458.283 165.016 458.757 165.016H472.094C472.569 165.016 472.954 164.63 472.954 164.154C472.954 163.678 472.569 163.293 472.094 163.293Z" fill="#F2994A"/>
        <path d="M489.301 163.293H475.964C475.489 163.293 475.104 163.678 475.104 164.154C475.104 164.63 475.489 165.016 475.964 165.016H489.301C489.775 165.016 490.16 164.63 490.16 164.154C490.16 163.678 489.775 163.293 489.301 163.293Z" fill="#F2994A"/>
        <path d="M500.055 163.293H493.171C492.696 163.293 492.311 163.678 492.311 164.154C492.311 164.63 492.696 165.016 493.171 165.016H500.055C500.53 165.016 500.915 164.63 500.915 164.154C500.915 163.678 500.53 163.293 500.055 163.293Z" fill="#F2994A"/>
        <path d="M484.999 171.909H458.757C458.283 171.909 457.898 172.295 457.898 172.771C457.898 173.247 458.283 173.633 458.757 173.633H484.999C485.474 173.633 485.859 173.247 485.859 172.771C485.859 172.295 485.474 171.909 484.999 171.909Z" fill="#F2994A"/>
        <path d="M469.943 180.526H458.757C458.283 180.526 457.898 180.912 457.898 181.388C457.898 181.863 458.283 182.249 458.757 182.249H469.943C470.418 182.249 470.803 181.863 470.803 181.388C470.803 180.912 470.418 180.526 469.943 180.526Z" fill="#F2994A"/>
        <path fill-rule="evenodd" clip-rule="evenodd" d="M633.623 168.032H751.488V252.052C751.488 255.38 748.795 258.076 745.469 258.076H639.642C636.319 258.076 633.623 255.375 633.623 252.052V168.032Z" fill="white" stroke="#F2994A" stroke-width="3.95472"/>
        <path fill-rule="evenodd" clip-rule="evenodd" d="M633.623 163.287C633.623 159.958 636.316 157.261 639.642 157.261H745.469C748.793 157.261 751.488 159.958 751.488 163.287V169.755H633.623V163.287Z" fill="white" stroke="#F2994A" stroke-width="3.95472"/>
        <path d="M642.871 165.447C643.94 165.447 644.806 164.579 644.806 163.508C644.806 162.437 643.94 161.569 642.871 161.569C641.802 161.569 640.935 162.437 640.935 163.508C640.935 164.579 641.802 165.447 642.871 165.447Z" fill="#F2994A"/>
        <path d="M649.323 165.447C650.392 165.447 651.259 164.579 651.259 163.508C651.259 162.437 650.392 161.569 649.323 161.569C648.254 161.569 647.387 162.437 647.387 163.508C647.387 164.579 648.254 165.447 649.323 165.447Z" fill="#F2994A"/>
        <path d="M655.776 165.447C656.845 165.447 657.712 164.579 657.712 163.508C657.712 162.437 656.845 161.569 655.776 161.569C654.707 161.569 653.84 162.437 653.84 163.508C653.84 164.579 654.707 165.447 655.776 165.447Z" fill="#F2994A"/>
        <path d="M706.536 234.596C718.415 234.596 728.044 224.951 728.044 213.054C728.044 201.157 718.415 191.512 706.536 191.512C694.657 191.512 685.027 201.157 685.027 213.054C685.027 224.951 694.657 234.596 706.536 234.596Z" fill="white" stroke="#F2994A" stroke-width="4.44906"/>
        <path fill-rule="evenodd" clip-rule="evenodd" d="M704.169 188.927V194.097H709.332V188.927H704.169Z" fill="white" stroke="#F2994A" stroke-width="3.95472"/>
        <path fill-rule="evenodd" clip-rule="evenodd" d="M703.954 232.011V237.181H709.117V232.011H703.954Z" fill="white" stroke="#F2994A" stroke-width="3.95472"/>
        <path fill-rule="evenodd" clip-rule="evenodd" d="M682.446 210.684V215.854H687.609V210.684H682.446Z" fill="white" stroke="#F2994A" stroke-width="3.95472"/>
        <path fill-rule="evenodd" clip-rule="evenodd" d="M725.248 210.684V215.854H730.411V210.684H725.248Z" fill="white" stroke="#F2994A" stroke-width="3.95472"/>
        <path d="M728.044 193.666V209.823" stroke="#F2994A" stroke-width="3.95472" stroke-linecap="square"/>
        <path d="M728.044 216.285V232.441" stroke="#F2994A" stroke-width="3.95472" stroke-linecap="square"/>
        <path d="M728.044 195.605C729.47 195.605 730.625 194.448 730.625 193.02C730.625 191.593 729.47 190.435 728.044 190.435C726.619 190.435 725.463 191.593 725.463 193.02C725.463 194.448 726.619 195.605 728.044 195.605Z" fill="#F2994A"/>
        <path d="M728.044 236.534C729.47 236.534 730.625 235.377 730.625 233.949C730.625 232.522 729.47 231.364 728.044 231.364C726.619 231.364 725.463 232.522 725.463 233.949C725.463 235.377 726.619 236.534 728.044 236.534Z" fill="#F2994A"/>
        <path d="M665.457 186.988H657.279C655.854 186.988 654.7 188.146 654.7 189.573V197.759C654.7 199.187 655.854 200.344 657.279 200.344H665.457C666.881 200.344 668.036 199.187 668.036 197.759V189.573C668.036 188.146 666.881 186.988 665.457 186.988Z" fill="white" stroke="#F2994A" stroke-width="3.95472"/>
        <path d="M665.457 206.376H657.279C655.855 206.376 654.7 207.533 654.7 208.961V217.147C654.7 218.574 655.855 219.732 657.279 219.732H665.457C666.881 219.732 668.036 218.574 668.036 217.147V208.961C668.036 207.533 666.881 206.376 665.457 206.376Z" fill="white" stroke="#F2994A" stroke-width="3.95472"/>
        <path d="M665.457 225.763H657.279C655.855 225.763 654.7 226.921 654.7 228.348V236.534C654.7 237.962 655.855 239.119 657.279 239.119H665.457C666.881 239.119 668.036 237.962 668.036 236.534V228.348C668.036 226.921 666.881 225.763 665.457 225.763Z" fill="white" stroke="#F2994A" stroke-width="3.95472"/>
        <path d="M813.218 298.79C820.345 298.79 826.123 293.003 826.123 285.865C826.123 278.726 820.345 272.94 813.218 272.94C806.091 272.94 800.313 278.726 800.313 285.865C800.313 293.003 806.091 298.79 813.218 298.79Z" fill="white" stroke="#F2994A" stroke-width="3.95472"/>
        <path d="M813.218 293.404C817.376 293.404 820.746 290.029 820.746 285.865C820.746 281.701 817.376 278.325 813.218 278.325C809.06 278.325 805.69 281.701 805.69 285.865C805.69 290.029 809.06 293.404 813.218 293.404Z" fill="white" stroke="#F2994A" stroke-width="3.95472"/>
        <path d="M796.011 270.57C798.387 270.57 800.313 268.641 800.313 266.262C800.313 263.882 798.387 261.953 796.011 261.953C793.635 261.953 791.709 263.882 791.709 266.262C791.709 268.641 793.635 270.57 796.011 270.57Z" fill="white" stroke="#F2994A" stroke-width="3.95472"/>
        <path fill-rule="evenodd" clip-rule="evenodd" d="M777.083 265.185C776.608 265.185 776.223 265.57 776.223 266.046V302.236C776.223 304.616 778.147 306.545 780.522 306.545H810.195C812.569 306.545 814.494 304.616 814.494 302.236V266.046C814.494 265.57 814.109 265.185 813.634 265.185H777.083Z" fill="white" stroke="#F2994A" stroke-width="3.95472"/>
        <path d="M803.111 276.817H797.084C795.66 276.817 794.505 277.975 794.505 279.402V288.019C794.505 289.446 795.66 290.604 797.084 290.604H803.111C804.536 290.604 805.69 289.446 805.69 288.019V279.402C805.69 277.975 804.536 276.817 803.111 276.817Z" fill="white" stroke="#F2994A" stroke-width="3.95472"/>
        <path d="M799.99 265.508V275.309" stroke="#F2994A" stroke-width="3.95472" stroke-linecap="square"/>
        <path fill-rule="evenodd" clip-rule="evenodd" d="M751.704 306.329C758.831 306.329 764.609 306.329 764.609 306.329C764.609 299.191 758.831 293.404 751.704 293.404C744.576 293.404 738.798 299.191 738.798 306.329C738.798 306.329 744.576 306.329 751.704 306.329Z" fill="white" stroke="#F2994A" stroke-width="3.95472"/>
        <path d="M752.564 293.836C752.564 293.359 752.179 292.973 751.704 292.973C751.229 292.973 750.843 293.359 750.843 293.836V294.912C750.843 295.388 751.229 295.774 751.704 295.774C752.179 295.774 752.564 295.388 752.564 294.912V293.836Z" fill="#F2994A"/>
        <path fill-rule="evenodd" clip-rule="evenodd" d="M304.318 280.91C297.314 280.91 291.636 286.6 291.636 293.62C291.636 300.639 297.314 306.329 304.318 306.329H356.379C357.091 306.329 357.669 305.751 357.669 305.037V303.036C357.669 302.132 356.971 301.382 356.071 301.317C350.161 300.897 347.021 298.295 347.021 293.62C347.021 288.944 350.161 286.342 356.071 285.922C356.971 285.858 357.669 285.107 357.669 284.203V282.202C357.669 281.489 357.091 280.91 356.379 280.91H304.318Z" fill="white" stroke="#F2994A" stroke-width="3.95472"/>
        <path d="M357.023 301.859C357.023 302.067 356.854 302.236 356.646 302.236H350.552H304.112C299.36 302.236 295.508 298.379 295.508 293.62C295.508 288.861 299.36 285.003 304.112 285.003H350.552H356.646C356.854 285.003 357.023 285.172 357.023 285.38" stroke="#F2994A" stroke-width="3.95472"/>
        <path d="M346.699 289.958H303.251C302.776 289.958 302.391 290.343 302.391 290.819C302.391 291.295 302.776 291.681 303.251 291.681H346.699C347.174 291.681 347.559 291.295 347.559 290.819C347.559 290.343 347.174 289.958 346.699 289.958Z" fill="#F2994A"/>
        <path d="M346.699 295.343H303.251C302.776 295.343 302.391 295.729 302.391 296.205C302.391 296.681 302.776 297.066 303.251 297.066H346.699C347.174 297.066 347.559 296.681 347.559 296.205C347.559 295.729 347.174 295.343 346.699 295.343Z" fill="#F2994A"/>
        <path d="M344.581 237.904C343.525 236.964 342.47 236.024 341.414 235.084C339.732 233.588 338.055 232.087 336.373 230.591C335.987 230.25 335.602 229.905 335.221 229.565C335.221 230.016 335.221 230.471 335.221 230.922C336.276 229.982 337.332 229.042 338.387 228.102C340.07 226.606 341.747 225.105 343.429 223.609C343.815 223.269 344.2 222.923 344.581 222.583C344.957 222.247 344.952 221.562 344.581 221.226C344.181 220.857 343.622 220.866 343.217 221.226C342.161 222.166 341.106 223.106 340.05 224.045C338.368 225.542 336.691 227.042 335.009 228.539C334.623 228.879 334.238 229.224 333.857 229.565C333.486 229.896 333.486 230.591 333.857 230.922C334.912 231.862 335.968 232.802 337.023 233.741C338.706 235.238 340.383 236.738 342.065 238.235C342.451 238.575 342.836 238.92 343.217 239.261C343.593 239.596 344.215 239.659 344.581 239.261C344.918 238.896 344.981 238.263 344.581 237.904Z" fill="#F2994A"/>
        <path d="M360.655 222.585C361.71 223.525 362.766 224.465 363.821 225.405C365.503 226.901 367.181 228.402 368.863 229.898C369.248 230.238 369.634 230.584 370.015 230.924C370.015 230.473 370.015 230.018 370.015 229.567C368.959 230.507 367.904 231.447 366.848 232.387C365.166 233.883 363.489 235.384 361.807 236.88C361.421 237.22 361.035 237.565 360.655 237.906C360.279 238.242 360.284 238.927 360.655 239.263C361.055 239.632 361.614 239.623 362.019 239.263C363.074 238.323 364.13 237.383 365.185 236.443C366.867 234.947 368.545 233.446 370.227 231.95C370.612 231.61 370.998 231.265 371.379 230.924C371.75 230.593 371.75 229.898 371.379 229.567C370.323 228.627 369.268 227.687 368.212 226.747C366.53 225.251 364.853 223.75 363.171 222.254C362.785 221.914 362.399 221.569 362.019 221.228C361.643 220.892 361.021 220.83 360.655 221.228C360.317 221.593 360.255 222.226 360.655 222.585Z" fill="#F2994A"/>
        <path d="M349.18 243.551C349.47 242.688 349.754 241.824 350.043 240.957C350.732 238.88 351.422 236.809 352.111 234.732C352.94 232.229 353.769 229.731 354.603 227.228C355.321 225.065 356.039 222.902 356.757 220.74C357.099 219.69 357.485 218.644 357.803 217.58C357.808 217.565 357.813 217.551 357.818 217.537C357.977 217.062 357.634 216.467 357.143 216.357C356.613 216.237 356.126 216.515 355.957 217.028C355.668 217.891 355.383 218.755 355.094 219.623C354.405 221.699 353.716 223.77 353.027 225.847C352.198 228.35 351.369 230.848 350.535 233.351C349.817 235.514 349.098 237.677 348.38 239.839C348.038 240.885 347.652 241.93 347.334 242.995C347.33 243.009 347.325 243.023 347.32 243.038C347.161 243.512 347.503 244.107 347.995 244.217C348.525 244.337 349.012 244.059 349.18 243.551Z" fill="#F2994A"/>
        <g clip-path="url(#clip1)">
            <path d="M710.402 224.536H701.612V227.636H702.588V229.186H709.426V227.636H710.402V224.536Z" fill="url(#paint4_linear)"/>
            <path d="M706.302 202.747V213.366C707.355 213.683 707.816 214.007 708.075 214.697C708.302 215.317 708.34 215.99 708.185 216.632C708.019 217.345 707.714 217.725 706.883 217.946C706.413 218.074 705.919 218.092 705.441 217.997C704.293 217.764 703.689 216.979 703.689 215.677C703.689 214.431 704.115 213.77 705.288 213.377V211.383L705.237 202.695L696.617 215.555C696.617 215.555 700.743 219.015 702.252 225.693H709.265C709.265 225.693 711.377 217.94 714.9 216.032L706.302 202.747Z" fill="url(#paint5_linear)"/>
            <path d="M706.458 203.264V213.119C707.128 213.233 707.733 213.588 708.161 214.117C708.588 214.647 708.809 215.315 708.781 215.995C708.753 216.676 708.479 217.324 708.009 217.816C707.54 218.309 706.908 218.613 706.231 218.671C705.554 218.73 704.879 218.539 704.333 218.134C703.786 217.729 703.405 217.138 703.262 216.472C703.118 215.806 703.222 215.11 703.553 214.515C703.884 213.92 704.42 213.467 705.061 213.24V203.264L697.141 215.413C697.141 215.413 701.333 219.151 702.73 225.693H708.787C708.787 225.693 711.116 217.748 714.376 215.881L706.458 203.264Z" fill="#ECEFF1"/>
            <path d="M705.06 198.125H686.429V199.059H705.06V198.125Z" fill="#ECEFF1"/>
            <path d="M726.02 198.125H707.389V199.059H726.02V198.125Z" fill="#ECEFF1"/>
            <path d="M709.253 226.627H702.732V228.963H709.253V226.627Z" fill="#F9A826"/>
            <path d="M707.979 196.562H704.429V200.123H707.979V196.562Z" fill="url(#paint6_linear)"/>
            <path d="M707.855 196.723H704.595V199.993H707.855V196.723Z" fill="#F9A826"/>
            <path d="M685.498 200.68C686.647 200.68 687.579 199.745 687.579 198.592C687.579 197.439 686.647 196.504 685.498 196.504C684.348 196.504 683.416 197.439 683.416 198.592C683.416 199.745 684.348 200.68 685.498 200.68Z" fill="url(#paint7_linear)"/>
            <path d="M727.425 200.68C728.574 200.68 729.506 199.745 729.506 198.592C729.506 197.439 728.574 196.504 727.425 196.504C726.275 196.504 725.343 197.439 725.343 198.592C725.343 199.745 726.275 200.68 727.425 200.68Z" fill="url(#paint8_linear)"/>
            <path d="M685.498 200.461C686.527 200.461 687.361 199.625 687.361 198.592C687.361 197.56 686.527 196.723 685.498 196.723C684.469 196.723 683.635 197.56 683.635 198.592C683.635 199.625 684.469 200.461 685.498 200.461Z" fill="#F9A826"/>
            <path d="M727.418 200.461C728.447 200.461 729.281 199.624 729.281 198.592C729.281 197.56 728.447 196.723 727.418 196.723C726.389 196.723 725.555 197.56 725.555 198.592C725.555 199.624 726.389 200.461 727.418 200.461Z" fill="#F9A826"/>
            <path d="M710.184 224.758H701.8V227.562H710.184V224.758Z" fill="#F9A826"/>
            <path opacity="0.2" d="M710.184 224.758H701.8V227.562H710.184V224.758Z" fill="black"/>
        </g>
    </g>
    <defs>
        <linearGradient id="paint0_linear" x1="568.914" y1="550.34" x2="568.914" y2="0" gradientUnits="userSpaceOnUse">
            <stop stop-color="#808080" stop-opacity="0.25"/>
            <stop offset="0.54" stop-color="#808080" stop-opacity="0.12"/>
            <stop offset="1" stop-color="#808080" stop-opacity="0.1"/>
        </linearGradient>
        <linearGradient id="paint1_linear" x1="188311" y1="57114.7" x2="188311" y2="15751.2" gradientUnits="userSpaceOnUse">
            <stop stop-color="#808080" stop-opacity="0.25"/>
            <stop offset="0.54" stop-color="#808080" stop-opacity="0.12"/>
            <stop offset="1" stop-color="#808080" stop-opacity="0.1"/>
        </linearGradient>
        <linearGradient id="paint2_linear" x1="26484.3" y1="169933" x2="60766.6" y2="169933" gradientUnits="userSpaceOnUse">
            <stop stop-color="#808080" stop-opacity="0.25"/>
            <stop offset="0.54" stop-color="#808080" stop-opacity="0.12"/>
            <stop offset="1" stop-color="#808080" stop-opacity="0.1"/>
        </linearGradient>
        <linearGradient id="paint3_linear" x1="108121" y1="115982" x2="119377" y2="115982" gradientUnits="userSpaceOnUse">
            <stop stop-color="#808080" stop-opacity="0.25"/>
            <stop offset="0.54" stop-color="#808080" stop-opacity="0.12"/>
            <stop offset="1" stop-color="#808080" stop-opacity="0.1"/>
        </linearGradient>
        <linearGradient id="paint4_linear" x1="706.007" y1="229.186" x2="706.007" y2="224.536" gradientUnits="userSpaceOnUse">
            <stop stop-color="#808080" stop-opacity="0.25"/>
            <stop offset="0.54" stop-color="#808080" stop-opacity="0.12"/>
            <stop offset="1" stop-color="#808080" stop-opacity="0.1"/>
        </linearGradient>
        <linearGradient id="paint5_linear" x1="11413.7" y1="16353.2" x2="11413.7" y2="5968.41" gradientUnits="userSpaceOnUse">
            <stop stop-color="#808080" stop-opacity="0.25"/>
            <stop offset="0.54" stop-color="#808080" stop-opacity="0.12"/>
            <stop offset="1" stop-color="#808080" stop-opacity="0.1"/>
        </linearGradient>
        <linearGradient id="paint6_linear" x1="2298.02" y1="449.705" x2="2298.02" y2="200.622" gradientUnits="userSpaceOnUse">
            <stop stop-color="#808080" stop-opacity="0.25"/>
            <stop offset="0.54" stop-color="#808080" stop-opacity="0.12"/>
            <stop offset="1" stop-color="#808080" stop-opacity="0.1"/>
        </linearGradient>
        <linearGradient id="paint7_linear" x1="854.095" y1="538.985" x2="854.095" y2="196.504" gradientUnits="userSpaceOnUse">
            <stop stop-color="#808080" stop-opacity="0.25"/>
            <stop offset="0.54" stop-color="#808080" stop-opacity="0.12"/>
            <stop offset="1" stop-color="#808080" stop-opacity="0.1"/>
        </linearGradient>
        <linearGradient id="paint8_linear" x1="4334.04" y1="538.985" x2="4334.04" y2="196.504" gradientUnits="userSpaceOnUse">
            <stop stop-color="#808080" stop-opacity="0.25"/>
            <stop offset="0.54" stop-color="#808080" stop-opacity="0.12"/>
            <stop offset="1" stop-color="#808080" stop-opacity="0.1"/>
        </linearGradient>
        <clipPath id="clip0">
            <rect width="536.999" height="219.408" fill="white" transform="translate(290.777 87.998)"/>
        </clipPath>
        <clipPath id="clip1">
            <rect width="46.0905" height="32.6825" fill="white" transform="translate(683.416 196.504)"/>
        </clipPath>
    </defs>
</svg>
